<svg id="Layer_1" xmlns="http://www.w3.org/2000/svg" width="791.627" height="116.945" viewBox="0.16 206.858 791.627 116.945"><title>wvu-logo--1.0.0</title><path fill="#FFF" d="M158.037 278.807c2.295 5.711 2.882 8.112 4.11 8.112.907 0 1.494-.427 2.082-2.081l9.233-22.951c.267-.587.587-.587.747-.587.267 0 .427.32.587.747l9.074 21.669c1.174 2.615 1.494 3.149 2.242 3.149 1.228 0 1.868-1.548 2.402-2.722l21.189-50.01c2.722-6.511 4.803-4.27 4.803-6.084 0-.907-.427-.907-1.014-.907-1.922 0-4.377.32-6.832.32-1.975 0-3.896-.32-5.764-.32-.587 0-.907.587-.907 1.228 0 1.655 5.337 1.067 5.337 4.644 0 .96-.16 1.868-.587 2.722l-14.998 36.988c-.748 1.814-1.228 3.042-1.815 3.042s-1.014-.64-1.814-2.562l-6.938-17.079c-.48-1.228-1.067-3.149-1.067-3.95 0-1.067.267-2.135.747-3.149l5.871-13.503c3.736-8.646 5.711-5.551 5.711-7.846 0-.267-.32-.48-.587-.48-1.388 0-2.402.32-6.031.32-1.815 0-3.523-.32-5.391-.32-.48 0-1.654 0-1.654.748 0 1.814 4.857 1.334 4.804 4.857-.107 1.014-.32 2.028-.748 2.989l-4.056 9.66c-.48 1.174-.907 2.082-1.174 2.082-.16 0-.427-.587-1.067-2.135l-4.27-10.995a5.538 5.538 0 0 1-.587-2.455c0-2.722 3.362-2.455 3.362-3.79 0-.48-.16-.961-.48-.961-1.815 0-4.057.32-8.006.32-1.174 0-5.551-.32-8.326-.32-.747 0-1.228.054-1.228.908 0 2.829 5.765-.16 8.006 5.284l8.272 19.854c.374.801.641 1.655.801 2.562a12.136 12.136 0 0 1-.961 3.363l-6.084 14.517c-.32.907-.747 1.495-1.174 1.495-.48 0-1.067-1.228-1.388-2.135l-15.691-38.802a4.593 4.593 0 0 1-.48-2.082c0-2.829 3.523-2.829 3.523-4.056 0-.587-.16-.961-.641-.961-1.975 0-3.95.32-5.924.32-2.402 0-4.857-.32-7.259-.32-.801 0-1.921.32-1.921 1.334 0 1.654 3.95.587 5.924 5.444l18.037 44.885zm48.676-16.653c0-4.537 3.629-10.408 8.753-10.408 4.537 0 9.126 4.109 9.126 8.753 0 1.228-.48 1.655-1.654 1.655h-16.225zm21.936 2.188c1.868 0 2.775.054 2.775-1.388 0-3.309-4.43-13.129-14.624-13.129-10.301 0-16.172 8.806-16.172 19.374 0 5.444 4.27 16.919 16.652 16.919 7.419 0 14.625-5.924 14.625-7.846 0-.267 0-.587-.32-.587-1.815 0-4.537 4.27-11.635 4.27-5.017 0-13.29-4.056-13.29-17.667l21.989.054zM245.408 270c3.31 1.548 7.526 2.882 7.526 7.259 0 4.27-3.309 6.778-7.366 6.778-8.913 0-8.006-10.888-9.82-10.888-1.228 0-1.014 2.615-1.014 4.056 0 6.512 0 6.619 1.814 6.619 1.975 0 3.469 2.402 9.234 2.402 6.191-.107 11.155-5.124 11.155-11.315 0-5.284-2.135-7.846-6.832-9.82-8.646-3.469-10.782-5.177-10.782-7.899 0-3.362 2.562-5.284 5.765-5.284 7.525 0 8.272 7.152 9.073 7.152 1.228 0 .907-1.014.907-3.203 0-.587.107-3.362-.427-4.056-1.014-1.228-6.672-1.868-8.06-1.868-6.031 0-11.155 3.309-11.155 9.874-.051 5.817 5.499 7.951 9.982 10.193zm17.133 6.565c0 8.486 5.444 9.554 9.233 9.554 5.765 0 10.248-2.775 10.248-4.056 0-.641-.32-.748-.641-.748-1.388 0-2.615 1.868-6.992 1.868-3.309 0-5.604-1.548-5.764-4.964v-24.018h10.728l1.121-2.989c.267-.427-.694-.374-2.775-.374h-9.074c0-5.925.054-7.686-1.067-7.686-.641 0-1.334-.48-1.655 2.082-.693 5.498-5.124 7.632-5.177 8.273.427-.427-1.548.854 1.921.694l-.106 22.364zm41.257 5.123c.747 1.708 1.708 5.177 3.042 5.177 1.228 0 1.814-2.722 2.722-4.803l20.549-48.569c2.295-5.498 4.643-3.469 4.643-5.284 0-.747-.48-1.067-1.387-1.067-1.174 0-2.402.32-6.352.32-1.815 0-3.629-.32-5.444-.32-.854 0-1.228.267-1.228 1.067 0 1.921 5.284.32 5.284 4.11.32 1.708-.641 4.376-1.174 5.604l-14.357 35.386c-.427 1.014-.64 2.295-1.494 2.295-.908 0-1.495-1.868-3.309-6.245l-14.464-33.999a9.353 9.353 0 0 1-.747-3.202c0-2.989 3.469-3.042 3.362-4.216 0-.48-.64-.801-1.174-.801-1.174 0-4.27.32-6.512.32-2.455 0-5.017-.32-7.579-.32a1.077 1.077 0 0 0-1.174.961v.16c0 1.815 4.27.267 6.352 5.177l20.441 48.249zm94.683-43.818c-1.014 0-3.469 3.469-3.469 4.376s2.455 4.27 3.469 4.27c1.067 0 3.47-3.309 3.47-4.27s-2.402-4.376-3.47-4.376zm56.523-.428c-.961 0-3.47 3.469-3.47 4.377 0 .907 2.455 4.27 3.47 4.27 1.067 0 3.469-3.309 3.469-4.27 0-1.014-2.402-4.377-3.469-4.377zm30.369 28.075c-19.321 3.203-20.709 8.433-20.709 12.81 0 5.871 3.522 7.846 8.913 7.846a19.465 19.465 0 0 0 12.597-4.804c1.067 2.722 3.202 4.217 6.458 4.217 1.174 0 4.804-.32 4.804-2.082 0-.587-.641-.587-1.068-.587-.427 0-1.067.16-1.387.16-4.271 0-3.523-4.857-3.523-7.686v-17.079c0-6.992-7.898-8.486-13.022-8.486-9.181-.267-13.771 5.551-13.877 9.34 0 1.495 2.455 2.722 3.896 2.722 1.548 0 1.814-.64 1.814-1.548 0-.907-.48-2.135-.48-3.362 0-4.537 3.202-4.964 7.151-4.964 5.124 0 8.486 2.882 8.486 7.152l-.053 6.351zm0 11.582c0 4.376-5.604 6.671-8.593 6.671-4.377 0-6.778-1.814-6.778-6.511 0-7.259 10.087-8.593 15.371-9.714v9.554zm-144.908 6.565c-.694.053-6.084-.054-6.084-3.523v-29.622c0-.801-.48-1.334-.96-1.334-1.921 0-3.523 2.615-8.807 4.11-.427.053-.747.48-.747.907 0 1.708 4.537-.427 4.537 4.537v19.481c0 7.526-3.629 4.377-3.629 6.458.107.8.587.907 1.228.907.907 0 3.042-.32 5.711-.32 3.362 0 5.924.32 7.686.32h1.442a59.86 59.86 0 0 1 7.579-.32c4.644 0 6.618.32 7.739.32.907 0 1.334-.16 1.334-.907 0-2.615-7.366 1.334-7.366-6.352v-18.36c0-1.067 6.565-12.649 16.599-12.169 2.989.107 2.508.267 4.43-2.775.854-1.334-2.989-1.334-4.75-1.174-11.048.801-13.557 8.38-16.279 12.329v-5.657c0-.801-.48-1.334-.961-1.334-1.921 0-3.522 2.615-9.927 4.11-.427.053-1.067.427-1.067.907 0 1.708 5.924-.427 5.924 4.537v21.296c-.055 2.613-2.778 3.788-3.632 3.628zm107.921-.054c-.801 0-6.191.32-6.191-4.697v-13.61c0-6.298-2.402-15.425-13.45-15.425-8.006 0-12.115 7.099-11.955 6.084v-5.444c0-.801-.48-1.334-.961-1.334-1.922 0-3.522 2.615-10.408 4.11-.427.053-.747.48-.747.907 0 1.708 6.085-.427 6.085 4.537v20.442c0 3.79-2.775 4.323-4.057 4.27-.533-.107-5.604-.107-5.604-3.363v-29.568c0-.801-.479-1.334-.96-1.334-1.922 0-3.522 2.615-8.807 4.11-.427.053-1.441 2.882-.961 2.775 2.722-.32 4.75-2.295 4.75 2.615v19.481c0 7.525-3.629 4.376-3.629 6.458.106.801.587.907 1.228.907.907 0 3.042-.32 5.711-.32 3.362 0 5.924.32 7.686.32h1.281c.96 0 2.615-.32 6.991-.32 4.804 0 6.458.32 7.846.32 1.228 0 1.815-.16 1.815-1.174 0-2.242-7.259.16-7.259-5.551v-18.894c-.107-1.334 2.828-6.458 9.714-6.458 6.671 0 9.66 6.191 9.66 10.301v15.425c0 5.337-3.522 3.736-3.522 5.337 0 .8.427 1.014 1.494 1.014s2.829-.32 5.925-.32c4.056 0 6.084.32 7.151.32h1.922c.907 0 3.042-.32 5.711-.32 3.362 0 5.924.32 7.686.32 1.067 0 1.548-.267 1.548-.907 0-2.135-6.512-.32-6.512-4.537v-29.568c0-.801-.48-1.334-.96-1.334-1.922 0-3.523 2.615-8.807 4.11-.428.053-.748.48-.748.907 0 1.708 4.537-.427 4.537 4.537v19.481c-.055 5.604-2.136 5.23-3.203 5.39z"/><path fill="#FFF" d="M374.197 273.309c-5.818 0-7.846-5.711-7.846-10.568 0-4.376 1.281-9.607 7.525-9.607 5.817 0 7.846 5.871 7.846 10.888.001 2.776-.746 9.287-7.525 9.287zm20.709-19.961c-.374-.587-1.174-.587-1.494-.587l-.214.053a21.21 21.21 0 0 1-6.565 1.388 5.436 5.436 0 0 1-2.455-.427c-.694-.32-1.228-.694-1.814-1.067-1.868-1.174-3.522-2.188-8.913-2.188-7.899 0-13.824 5.817-13.824 13.503 0 4.216 1.868 8.059 4.963 10.248-1.228 1.174-3.949 3.896-3.949 6.778 0 3.576 1.281 6.138 3.416 6.992 1.868 1.014 5.444 1.601 10.995 1.814 8.913.267 10.834.587 10.834 3.31 0 1.281-.641 7.632-13.13 7.632-3.149 0-10.514-.587-10.514-6.138 0-1.921.16-2.082 1.121-3.309.32-.374.374-.907.16-1.334-.267-.534-.8-.854-1.388-.8-.16 0-.32 0-.427.053-1.548.534-3.95 1.334-3.95 5.23 0 7.366 9.5 9.287 14.518 9.287 13.823 0 18.734-6.778 18.734-12.596 0-7.899-8.54-7.899-13.183-7.899h-3.683c-5.71 0-7.846-1.014-8.7-1.815-.374-.427-.587-1.014-.48-1.548 0-1.654 1.761-3.95 3.416-3.95.32 0 .587.054.908.16 1.547.374 3.202.587 4.803.48 8.273 0 14.25-5.551 14.25-13.183-.053-1.548-.213-3.096-.64-4.59-.16-.32-.32-.641-.427-.908-.106-.267-.213-.427-.32-.64 2.829-.267 7.632-1.441 7.792-2.349.267-.639.32-1.174.16-1.6zm282.236 30.316c-.48.213-.694.8-.48 1.281.106.267.32.427.587.534.32.16-.16 0 .107 0h.533a59.868 59.868 0 0 1 7.579-.32c4.644 0 6.618.32 7.739.32.907 0 1.334-.16 1.334-.907 0-2.615-7.365 1.334-7.365-6.352l.053-18.36c0-1.068 6.565-12.649 16.6-12.169 2.988.107 2.508.267 4.43-2.829.854-1.334-2.989-1.334-4.75-1.174-11.049.908-13.504 8.433-16.279 12.436v-.16l-.053-5.498c0-.8-.48-1.334-.961-1.334-1.868 0-3.522 2.615-9.874 4.109-.427.107-1.067.427-1.067.908 0 1.708 5.924-.427 5.924 4.537v21.295c-.001 2.561-3.15 3.362-4.057 3.683zm107.813-27.328c1.654-4.963 4.43-2.882 4.43-4.803 0-.641-.587-.961-1.548-.961-.854 0-2.295.32-4.217.32-2.295 0-3.629-.32-4.59-.32-1.494 0-2.455.107-2.455.907 0 1.815 5.284.587 5.284 5.017 0 .587 0 1.334-1.015 4.27-5.551 17.826-6.351 18.627-6.351 18.627l-8.807-22.417.16-.16c.16.747-.588-.48-.588-1.815 0-3.309 4.697-1.654 4.697-3.362 0-.907-.48-1.067-1.762-1.067-1.228 0-3.202.32-6.084.32-2.242 0-4.057-.16-5.765-.16-1.174 0-1.28.106-1.654.854-2.188 4.216 3.042 1.334 3.843 3.042l10.835 26.633c.747 1.708 1.654 3.522 1.654 5.551 0 6.458-7.792 20.655-20.335 18.947-.427-.053-1.441-.32-1.814.16.373.106-1.121-.374 1.44 3.416.907.747 2.669 1.121 5.604.48 8.486-1.868 14.25-10.408 14.304-10.675 4.38-6.563 14.68-42.857 14.734-42.804zm-275.511-22.523c0-5.924 5.551-3.629 5.551-5.924 0-1.014-2.242-.8-2.615-.8-2.562 0-5.178.32-7.847.32-2.241 0-4.27-.32-6.404-.32-.427 0-1.814.267-1.814.8 0 2.615 6.672.641 6.672 5.551v27.808c0 12.703 4.109 24.818 25.832 24.818 24.018 0 23.004-20.389 23.004-24.445v-25.566c0-7.579 4.856-5.764 4.856-8.112 0-.48-.641-.908-1.067-.908-1.494 0-2.988.32-4.536.32-3.203 0-6.458-.32-9.661-.32-.267 0-.801.427-.801.801 0 3.149 7.687-.32 7.687 8.059v26.74c0 9.714-3.522 19.961-19.055 19.961-11.154 0-19.694-6.031-19.694-19.214l-.108-29.569zm141.011 28.234c0-4.537 3.629-10.408 8.753-10.408 4.537 0 9.127 4.11 9.127 8.753 0 1.228-.48 1.654-1.654 1.654h-16.226zm21.937 2.189c1.921 0 2.775.106 2.775-1.388 0-3.309-4.431-13.13-14.624-13.13-10.302 0-16.173 8.807-16.173 19.375 0 5.444 4.271 16.919 16.652 16.919 7.419 0 14.571-5.924 14.571-7.846 0-.267 0-.587-.32-.587-1.814 0-4.537 4.27-11.635 4.27-5.018 0-13.29-4.056-13.29-17.667l22.044.054z"/><path fill="#FFF" d="M708.898 269.893c3.309 1.548 7.525 2.882 7.525 7.259 0 4.27-3.309 6.778-7.365 6.778-8.913 0-8.006-10.888-9.82-10.888-1.229 0-.961 2.616-.961 4.057 0 6.511 0 6.618 1.814 6.618 1.975 0 3.469 2.402 9.233 2.402 6.191-.107 11.155-5.124 11.155-11.315 0-5.284-2.135-7.846-6.832-9.821-8.646-3.469-10.835-5.177-10.835-7.899 0-3.363 2.562-5.284 5.765-5.284 7.525 0 8.22 7.206 9.073 7.206 1.228 0 .907-1.014.907-3.203 0-.587.107-3.362-.427-4.056-1.015-1.228-6.672-1.868-8.06-1.868-6.031 0-11.154 3.309-11.154 9.874.002 5.764 5.499 7.898 9.982 10.14zm32.718 6.565c0 8.486 5.443 9.554 9.233 9.554 5.764 0 10.247-2.775 10.247-4.056 0-.641-.319-.747-.64-.747-1.388 0-2.615 1.921-6.992 1.921-3.31 0-5.604-1.548-5.765-4.964v-24.018h10.729l1.12-3.042c.268-.427-.693-.374-2.775-.374H747.7c0-5.924.054-7.686-1.067-7.686-.641 0-1.334-.48-1.654 2.082-.694 5.497-5.124 7.632-5.177 8.272.427-.427-1.495.854 1.921.694l-.107 22.364zm-118.22-18.146c-.961-2.455-1.388-3.736-1.388-4.003 0-2.456 4.643-1.388 4.643-2.989 0-.907-.747-.907-1.867-.907-.961 0-2.028.32-5.018.32-5.391 0-5.391-.32-6.938-.32-1.602 0-1.708.427-1.708.961 0 1.441 2.936.267 4.483 3.896l12.276 28.074c.213.587.587 1.975 1.601 1.975 1.228 0 1.228-.96 2.775-4.323l12.436-26.366c1.121-2.455 4.057-1.975 4.057-2.989 0-1.121-1.388-1.228-2.188-1.228-1.388 0-2.828.32-4.216.32-1.762 0-3.31-.32-5.018-.32-1.067 0-1.975.053-1.975 1.067 0 2.028 5.017-.213 5.017 4.323 0 3.683-2.027 7.099-3.575 10.354l-5.444 11.742-7.953-19.587zm-24.606 27.166h.747c.907 0 3.043-.32 5.711-.32 3.363 0 5.925.32 7.686.32 1.068 0 1.548-.267 1.548-.907 0-2.135-6.511-.32-6.511-4.537v-29.622c0-.801-.48-1.334-.961-1.334-1.922 0-3.522 2.616-8.807 4.11-.427.053-.747.48-.747.907 0 1.708 4.536-.427 4.536 4.537v19.481c0 5.604-2.135 5.337-3.042 5.337-.32 0-6.244.374-6.244-4.697v-13.61c0-6.245-2.402-15.425-13.45-15.425-8.006 0-12.115 7.099-11.955 6.084v-5.391c0-.801-.48-1.334-1.015-1.334-1.921 0-3.522 2.616-10.407 4.11-.428.053-.748.48-.748.907 0 1.708 6.085-.427 6.085 4.537v20.442c0 5.337-4.857 3.736-4.857 5.337 0 .801.428 1.014 1.495 1.014s2.668-.32 6.991-.32c4.804 0 6.458.32 7.847.32 1.228 0 1.814-.16 1.814-1.174 0-2.242-7.259.16-7.259-5.551v-18.894c-.106-1.334 2.775-6.458 9.714-6.458 6.672 0 9.66 6.191 9.66 10.301v15.425c0 5.337-3.522 3.736-3.522 5.337 0 .801.427 1.014 1.494 1.014s2.829-.32 5.925-.32c4.057 0 6.084.32 7.152.32l1.12.054zm6.672-47.448c-.961 0-3.47 3.469-3.47 4.376s2.455 4.27 3.47 4.27c1.067 0 3.469-3.309 3.469-4.27 0-1.014-2.402-4.376-3.469-4.376zm121.316 39.762c0 7.525-3.63 4.376-3.63 6.405.107.8.588.907 1.229.907.907 0 3.042-.32 5.711-.32 3.362 0 5.924.32 7.686.32 1.067 0 1.548-.267 1.548-.907 0-2.135-6.512-.32-6.512-4.537v-29.622c0-.801-.48-1.334-1.015-1.334-1.921 0-3.522 2.615-8.806 4.11-.428.053-.748.48-.748.907 0 1.708 4.537-.427 4.537 4.537v19.534zm3.256-39.762c-.961 0-3.47 3.469-3.47 4.376s2.455 4.27 3.47 4.27c1.067 0 3.469-3.309 3.469-4.27 0-1.014-2.401-4.376-3.469-4.376zm54.974 43.712v-2.028h1.335c.693 0 1.44.16 1.44.961 0 1.014-.747 1.067-1.601 1.067h-1.174zm0 .8h1.121l1.708 2.829h1.121l-1.868-2.882c.961-.107 1.708-.641 1.708-1.814 0-1.281-.747-1.868-2.295-1.868h-2.456v6.511h.961v-2.776zm-3.362-.426c.054-2.509 2.188-4.537 4.697-4.43 2.508.054 4.536 2.188 4.43 4.697-.054 2.456-2.082 4.43-4.537 4.43-2.508 0-4.59-1.975-4.59-4.537v-.16zm4.589 5.657c3.096-.053 5.604-2.615 5.551-5.71-.053-3.096-2.615-5.604-5.711-5.551-3.096.053-5.551 2.562-5.551 5.604 0 3.096 2.509 5.657 5.604 5.657h.107z"/><path fill="#EEB111" d="M124.572 206.86h-22.043c-3.843-.053-5.23 1.388-6.405 3.149l-16.385 24.285-15.692-23.804-.534-.801c-.267-.427-.694-.694-1.174-.694-.48.054-.907.32-1.174.694l-.534.801-15.158 23.804-16.866-24.285c-1.174-1.761-2.562-3.202-6.405-3.149H.16v19.801h12.276c2.562 0 3.79.107 5.551 2.242l.747 1.067 24.711 38.802c.48.747 1.281 1.174 2.135 1.281.907-.053 1.761-.48 2.295-1.281l14.464-21.669 14.998 21.616s.854 1.281 2.135 1.334c.907-.053 1.708-.534 2.135-1.281l24.392-38.802.747-1.067c1.281-1.975 2.882-2.188 5.444-2.135h12.275l.107-19.908z"/><path fill="#EEB111" d="M93.136 262.368l-13.343 21.189-17.186-24.979-13.237 19.481 27.914 43.82c.961 1.654 1.708 1.867 2.135 1.921.854.054 1.334-.427 2.242-1.921l21.936-39.977c1.014-1.975 2.989-3.31 5.23-3.416h15.745v-19.855H99.914c-4.483 0-6.778 3.737-6.778 3.737z"/></svg>